<svg xmlns="http://www.w3.org/2000/svg" style="display:none">
  <!-- fa-laptop-code -->
  <symbol id="icon-laptop-code" viewBox="0 0 640 512"><path fill="currentColor" d="M64 96c0-35.3 28.7-64 64-64H512c35.3 0 64 28.7 64 64V352H512V96H128V352H64V96zM0 403.2C0 392.6 8.6 384 19.2 384H620.8c10.6 0 19.2 8.6 19.2 19.2c0 42.4-34.4 76.8-76.8 76.8H76.8C34.4 480 0 445.6 0 403.2zM281 209l-31 31 31 31c9.4 9.4 9.4 24.6 0 33.9s-24.6 9.4-33.9 0l-48-48c-9.4-9.4-9.4-24.6 0-33.9l48-48c9.4-9.4 24.6-9.4 33.9 0s9.4 24.6 0 33.9zM393 175l48 48c9.4 9.4 9.4 24.6 0 33.9l-48 48c-9.4 9.4-24.6 9.4-33.9 0s-9.4-24.6 0-33.9l31-31-31-31c-9.4-9.4-9.4-24.6 0-33.9s24.6-9.4 33.9 0z"/></symbol>
  <!-- fa-globe -->
  <symbol id="icon-globe" viewBox="0 0 512 512"><path fill="currentColor" d="M352 256c0 22.2-1.2 43.6-3.3 64H163.3c-2.2-20.4-3.3-41.8-3.3-64s1.2-43.6 3.3-64H348.7c2.2 20.4 3.3 41.8 3.3 64zm28.8-64H503.9c5.3 20.5 8.1 41.9 8.1 64s-2.8 43.5-8.1 64H380.8c2.1-20.6 3.2-42 3.2-64s-1.1-43.4-3.2-64zm112.6-32H376.7c-10-63.9-29.8-117.4-55.3-151.6c78.3 20.7 142 77.5 171.9 151.6zm-149.1 0H167.7c6.1-36.4 15.5-68.6 27-94.7c10.5-23.6 22.2-40.7 33.5-51.5C239.4 3.2 248.7 0 256 0s16.6 3.2 27.8 13.8c11.3 10.8 23 27.9 33.5 51.5c11.5 26 20.9 58.2 27 94.7zm-209 0H18.6C48.6 85.9 112.2 29.1 190.6 8.4C165.1 42.6 145.3 96.1 135.3 160zM8.1 192H131.2c-2.1 20.6-3.2 42-3.2 64s1.1 43.4 3.2 64H8.1C2.8 299.5 0 278.1 0 256s2.8-43.5 8.1-64zM194.7 446.6c-11.5-26-20.9-58.2-27-94.6H344.3c-6.1 36.4-15.5 68.6-27 94.6c-10.5 23.6-22.2 40.7-33.5 51.5C272.6 508.8 263.3 512 256 512s-16.6-3.2-27.8-13.8c-11.3-10.8-23-27.9-33.5-51.5zM135.3 352c10 63.9 29.8 117.4 55.3 151.6C112.2 482.9 48.6 426.1 18.6 352H135.3zm245.1 0H493.4c-29.9 74.1-93.6 130.9-171.9 151.6c25.5-34.2 45.2-87.7 55.3-151.6z"/></symbol>
  <!-- fa-wrench -->
  <symbol id="icon-wrench" viewBox="0 0 512 512"><path fill="currentColor" d="M352 320c88.4 0 160-71.6 160-160c0-15.3-2.2-30.1-6.2-44.2c-3.1-10.8-16.4-13.2-24.3-5.3l-76.8 76.8c-3 3-7.1 4.7-11.3 4.7L336 192c-8.8 0-16-7.2-16-16l0-57.4c0-4.2 1.7-8.3 4.7-11.3l76.8-76.8c7.9-7.9 5.4-21.2-5.3-24.3C382.1 2.2 367.3 0 352 0C263.6 0 192 71.6 192 160c0 19.1 3.4 37.5 9.5 54.5L19.9 396.1C7.2 408.8 0 426.1 0 444.1C0 481.6 30.4 512 67.9 512c18 0 35.3-7.2 48-19.9L297.5 310.5c17 6.2 35.4 9.5 54.5 9.5zM80 408a24 24 0 1 1 0 48 24 24 0 1 1 0-48z"/></symbol>
  <!-- fa-envelope -->
  <symbol id="icon-envelope" viewBox="0 0 512 512"><path fill="currentColor" d="M48 64C21.5 64 0 85.5 0 112c0 15.1 7.1 29.3 19.2 38.4L236.8 313.6c11.4 8.5 27 8.5 38.4 0L492.8 150.4c12.1-9.1 19.2-23.3 19.2-38.4c0-26.5-21.5-48-48-48H48zM0 176V384c0 35.3 28.7 64 64 64H448c35.3 0 64-28.7 64-64V176L294.4 339.2c-22.8 17.1-54 17.1-76.8 0L0 176z"/></symbol>
  <!-- fa-linkedin (brands) -->
  <symbol id="icon-linkedin" viewBox="0 0 448 512"><path fill="currentColor" d="M416 32H31.9C14.3 32 0 46.5 0 64.3v383.4C0 465.5 14.3 480 31.9 480H416c17.6 0 32-14.5 32-32.3V64.3c0-17.8-14.4-32.3-32-32.3zM135.4 416H69V202.2h66.5V416zm-33.2-243c-21.3 0-38.5-17.3-38.5-38.5S80.9 96 102.2 96c21.2 0 38.5 17.3 38.5 38.5 0 21.3-17.2 38.5-38.5 38.5zm282.1 243h-66.4V312c0-24.8-.5-56.7-34.5-56.7-34.6 0-39.9 27-39.9 54.9V416h-66.4V202.2h63.7v29.2h.9c8.9-16.8 30.6-34.5 62.9-34.5 67.2 0 79.7 44.3 79.7 101.9V416z"/></symbol>
  <!-- fa-github (brands) -->
  <symbol id="icon-github" viewBox="0 0 496 512"><path fill="currentColor" d="M165.9 397.4c0 2-2.3 3.6-5.2 3.6-3.3.3-5.6-1.3-5.6-3.6 0-2 2.3-3.6 5.2-3.6 3-.3 5.6 1.3 5.6 3.6zm-31.1-4.5c-.7 2 1.3 4.3 4.3 4.9 2.6 1 5.6 0 6.2-2s-1.3-4.3-4.3-5.2c-2.6-.7-5.5.3-6.2 2.3zm44.2-1.7c-2.9.7-4.9 2.6-4.6 4.9.3 2 2.9 3.3 5.9 2.6 2.9-.7 4.9-2.6 4.6-4.6-.3-1.9-3-3.2-5.9-2.9zM244.8 8C106.1 8 0 113.3 0 252c0 110.9 69.8 205.8 169.5 239.2 12.8 2.3 17.3-5.6 17.3-12.1 0-6.2-.3-40.4-.3-61.4 0 0-70 15-84.7-29.8 0 0-11.4-29.1-27.8-36.6 0 0-22.9-15.7 1.6-15.4 0 0 24.9 2 38.6 25.8 21.9 38.6 58.6 27.5 72.9 20.9 2.3-16 8.8-27.1 16-33.7-55.9-6.2-112.3-14.3-112.3-110.5 0-27.5 7.6-41.3 23.6-58.9-2.6-6.5-11.1-33.3 2.6-67.9 20.9-6.5 69 27 69 27 20-5.6 41.5-8.5 62.8-8.5s42.8 2.9 62.8 8.5c0 0 48.1-33.6 69-27 13.7 34.7 5.2 61.4 2.6 67.9 16 17.7 25.8 31.5 25.8 58.9 0 96.5-58.9 104.2-114.8 110.5 9.2 7.9 17 22.9 17 46.4 0 33.7-.3 75.4-.3 83.6 0 6.5 4.6 14.4 17.3 12.1C428.2 457.8 496 362.9 496 252 496 113.3 383.5 8 244.8 8zM97.2 352.9c-1.3 1-1 3.3.7 5.2 1.6 1.6 3.9 2.3 5.2 1 1.3-1 1-3.3-.7-5.2-1.6-1.6-3.9-2.3-5.2-1zm-10.8-8.1c-.7 1.3.3 2.9 2.3 3.9 1.6 1 3.6.7 4.3-.7.7-1.3-.3-2.9-2.3-3.9-2-.6-3.6-.3-4.3.7zm32.4 35.6c-1.6 1.3-1 4.3 1.3 6.2 2.3 2.3 5.2 2.6 6.5 1 1.3-1.3.7-4.3-1.3-6.2-2.2-2.3-5.2-2.6-6.5-1zm-11.4-14.7c-1.6 1-1.6 3.6 0 5.9 1.6 2.3 4.3 3.3 5.6 2.3 1.6-1.3 1.6-3.9 0-6.2-1.4-2.3-4-3.3-5.6-2z"/></symbol>
  <!-- fa-paper-plane -->
  <symbol id="icon-paper-plane" viewBox="0 0 512 512"><path fill="currentColor" d="M498.1 5.6c10.1 7 15.4 19.1 13.5 31.2l-64 416c-1.5 9.7-7.4 18.2-16 23s-18.9 5.4-28 1.6L284 427.7l-68.5 74.1c-8.9 9.7-22.9 12.9-35.2 8.1S160 492.3 160 480V396.4c0-4 1.5-7.8 4.2-10.7L331.8 202.8c5.8-6.3 5.4-16.1-.8-21.9s-16.1-5.4-21.9 .8L160 340.5 30.3 287.3C16.5 282 7.8 268.8 8 254.3s9.3-27.3 23.3-32.1l448-160c10.1-3.6 21.2-2.2 29.8 4.7z"/></symbol>
  <!-- fa-palette -->
  <symbol id="icon-palette" viewBox="0 0 512 512"><path fill="currentColor" d="M512 256c0 .9 0 1.8 0 2.7c-.4 36.5-33.6 61.3-70.1 61.3H344c-26.5 0-48 21.5-48 48c0 3.4.4 6.7 1 9.9c2.1 10.2 6.5 20 10.8 29.9c6.1 13.8 12.1 27.5 12.1 42c0 31.8-21.6 60.7-53.4 62c-3.5.1-7 .2-10.6.2C114.6 512 0 397.4 0 256S114.6 0 256 0S512 114.6 512 256zM128 288a32 32 0 1 0 -64 0 32 32 0 1 0 64 0zm0-96a32 32 0 1 0 0-64 32 32 0 1 0 0 64zM288 96a32 32 0 1 0 -64 0 32 32 0 1 0 64 0zm96 96a32 32 0 1 0 0-64 32 32 0 1 0 0 64z"/></symbol>
  <!-- fa-gamepad -->
  <symbol id="icon-gamepad" viewBox="0 0 640 512"><path fill="currentColor" d="M192 64C86 64 0 150 0 256S86 448 192 448H448c106 0 192-86 192-192s-86-192-192-192H192zM496 168a40 40 0 1 1 0 80 40 40 0 1 1 0-80zM392 304a40 40 0 1 1 80 0 40 40 0 1 1-80 0zM168 200c0-13.3 10.7-24 24-24s24 10.7 24 24v32h32c13.3 0 24 10.7 24 24s-10.7 24-24 24H216v32c0 13.3-10.7 24-24 24s-24-10.7-24-24V280H136c-13.3 0-24-10.7-24-24s10.7-24 24-24h32V200z"/></symbol>
  <!-- fa-chart-bar -->
  <symbol id="icon-chart-bar" viewBox="0 0 512 512"><path fill="currentColor" d="M32 32c17.7 0 32 14.3 32 32V400c0 8.8 7.2 16 16 16H480c17.7 0 32 14.3 32 32s-14.3 32-32 32H80c-44.2 0-80-35.8-80-80V64C0 46.3 14.3 32 32 32zM160 224c17.7 0 32 14.3 32 32v64c0 17.7-14.3 32-32 32s-32-14.3-32-32V256c0-17.7 14.3-32 32-32zm128-64V320c0 17.7-14.3 32-32 32s-32-14.3-32-32V160c0-17.7 14.3-32 32-32s32 14.3 32 32zm64 32c17.7 0 32 14.3 32 32v96c0 17.7-14.3 32-32 32s-32-14.3-32-32V224c0-17.7 14.3-32 32-32zM480 96V320c0 17.7-14.3 32-32 32s-32-14.3-32-32V96c0-17.7 14.3-32 32-32s32 14.3 32 32z"/></symbol>
  <!-- fa-house-signal -->
  <symbol id="icon-house-signal" viewBox="0 0 576 512"><path fill="currentColor" d="M357.7 8.5c-12.3-11.3-31.2-11.3-43.4 0l-208 192c-9.4 8.6-12.7 22-8.5 34c87.1 25.3 155.6 94.2 180.3 181.6L464 416c26.5 0 48-21.5 48-48l0-112 32 0c13.2 0 25-8.1 29.8-20.3s1.6-26.2-8.1-35.2l-208-192zM288 208c0-8.8 7.2-16 16-16l64 0c8.8 0 16 7.2 16 16l0 64c0 8.8-7.2 16-16 16l-64 0c-8.8 0-16-7.2-16-16l0-64zM24 256c-13.3 0-24 10.7-24 24s10.7 24 24 24c101.6 0 184 82.4 184 184c0 13.3 10.7 24 24 24s24-10.7 24-24c0-128.1-103.9-232-232-232zm8 256a32 32 0 1 0 0-64 32 32 0 1 0 0 64zM0 376c0 13.3 10.7 24 24 24c48.6 0 88 39.4 88 88c0 13.3 10.7 24 24 24s24-10.7 24-24c0-75.1-60.9-136-136-136c-13.3 0-24 10.7-24 24z"/></symbol>
  <!-- fa-hard-drive -->
  <symbol id="icon-hard-drive" viewBox="0 0 512 512"><path fill="currentColor" d="M0 96C0 60.7 28.7 32 64 32l384 0c35.3 0 64 28.7 64 64l0 184.4c-17-15.2-39.4-24.4-64-24.4L64 256c-24.6 0-47 9.2-64 24.4L0 96zM64 288l384 0c35.3 0 64 28.7 64 64l0 64c0 35.3-28.7 64-64 64L64 480c-35.3 0-64-28.7-64-64l0-64c0-35.3 28.7-64 64-64zM320 416a32 32 0 1 0 0-64 32 32 0 1 0 0 64zm128-32a32 32 0 1 0 -64 0 32 32 0 1 0 64 0z"/></symbol>
  <!-- fa-arrow-left -->
  <symbol id="icon-arrow-left" viewBox="0 0 448 512"><path fill="currentColor" d="M9.4 233.4c-12.5 12.5-12.5 32.8 0 45.3l160 160c12.5 12.5 32.8 12.5 45.3 0s12.5-32.8 0-45.3L109.2 288 416 288c17.7 0 32-14.3 32-32s-14.3-32-32-32l-306.7 0L214.6 118.6c12.5-12.5 12.5-32.8 0-45.3s-32.8-12.5-45.3 0l-160 160z"/></symbol>
  <!-- fa-tower-broadcast -->
  <symbol id="icon-tower-broadcast" viewBox="0 0 576 512"><path fill="currentColor" d="M80.3 44C69.8 69.9 64 98.2 64 128s5.8 58.1 16.3 84c6.6 16.4-1.3 35-17.7 41.7s-35-1.3-41.7-17.7C7.4 202.6 0 166.1 0 128S7.4 53.4 20.9 20C27.6 3.6 46.2-4.3 62.6 2.3S86.9 27.6 80.3 44zM555.1 20C568.6 53.4 576 89.9 576 128s-7.4 74.6-20.9 108c-6.6 16.4-25.3 24.3-41.7 17.7S489.1 228.4 495.7 212c10.5-25.9 16.3-54.2 16.3-84s-5.8-58.1-16.3-84C489.1 27.6 497 9 513.4 2.3s35 1.3 41.7 17.7zM352 128c0 23.7-12.9 44.4-32 55.4V480c0 17.7-14.3 32-32 32s-32-14.3-32-32V183.4c-19.1-11.1-32-31.7-32-55.4c0-35.3 28.7-64 64-64s64 28.7 64 64zM170.6 76.8C163.8 92.4 160 109.7 160 128s3.8 35.6 10.6 51.2c7.1 16.2-.3 35.1-16.5 42.1s-35.1-.3-42.1-16.5C100.3 181.2 96 155.2 96 128s4.3-53.2 16-76.8c7.1-16.2 25.9-23.6 42.1-16.5s23.6 25.9 16.5 42.1zM464 128c0 27.2-4.3 53.2-16 76.8c-7.1 16.2-25.9 23.6-42.1 16.5s-23.6-25.9-16.5-42.1c6.8-15.6 10.6-32.9 10.6-51.2s-3.8-35.6-10.6-51.2c-7.1-16.2.3-35.1 16.5-42.1s35.1.3 42.1 16.5c11.7 23.6 16 49.6 16 76.8z"/></symbol>
  <!-- fa-file-pdf (for CV download) -->
  <symbol id="icon-file-pdf" viewBox="0 0 512 512"><path fill="currentColor" d="M0 64C0 28.7 28.7 0 64 0H224V128c0 17.7 14.3 32 32 32H384V304H176c-35.3 0-64 28.7-64 64V512H64c-35.3 0-64-28.7-64-64V64zm384 64H256V0L384 128zM176 352h32c30.9 0 56 25.1 56 56s-25.1 56-56 56H192v32c0 8.8-7.2 16-16 16s-16-7.2-16-16V448 368c0-8.8 7.2-16 16-16zm32 80c13.3 0 24-10.7 24-24s-10.7-24-24-24H192v48h16zm96-80h32c26.5 0 48 21.5 48 48v64c0 26.5-21.5 48-48 48H304c-8.8 0-16-7.2-16-16V368c0-8.8 7.2-16 16-16zm32 128c8.8 0 16-7.2 16-16V400c0-8.8-7.2-16-16-16H320v96h16zm80-112c0-8.8 7.2-16 16-16h48c8.8 0 16 7.2 16 16s-7.2 16-16 16H448v32h32c8.8 0 16 7.2 16 16s-7.2 16-16 16H448v48c0 8.8-7.2 16-16 16s-16-7.2-16-16V432 368z"/></symbol>
  <!-- fa-download -->
  <symbol id="icon-download" viewBox="0 0 512 512"><path fill="currentColor" d="M288 32c0-17.7-14.3-32-32-32s-32 14.3-32 32V274.7l-73.4-73.4c-12.5-12.5-32.8-12.5-45.3 0s-12.5 32.8 0 45.3l128 128c12.5 12.5 32.8 12.5 45.3 0l128-128c12.5-12.5 12.5-32.8 0-45.3s-32.8-12.5-45.3 0L288 274.7V32zM64 352c-35.3 0-64 28.7-64 64v32c0 35.3 28.7 64 64 64H448c35.3 0 64-28.7 64-64V416c0-35.3-28.7-64-64-64H346.5l-45.3 45.3c-25 25-65.5 25-90.5 0L165.5 352H64zm368 56a24 24 0 1 1 0 48 24 24 0 1 1 0-48z"/></symbol>
  <!-- fa-briefcase (for industry) -->
  <symbol id="icon-briefcase" viewBox="0 0 512 512"><path fill="currentColor" d="M184 48H328c4.4 0 8 3.6 8 8V96H176V56c0-4.4 3.6-8 8-8zm-56 8V96H64C28.7 96 0 124.7 0 160v96H192 320 512V160c0-35.3-28.7-64-64-64H384V56c0-30.9-25.1-56-56-56H184c-30.9 0-56 25.1-56 56zM512 288H320v32c0 17.7-14.3 32-32 32H224c-17.7 0-32-14.3-32-32V288H0V416c0 35.3 28.7 64 64 64H448c35.3 0 64-28.7 64-64V288z"/></symbol>
</svg>
